<mxfile host="app.diagrams.net" agent="Mozilla/5.0 (Windows NT 10.0; Win64; x64) AppleWebKit/537.36 (KHTML, like Gecko) Chrome/137.0.0.0 Safari/537.36" version="27.1.6">
  <diagram name="Page-1" id="fwe_PW3j7eOUexRt8wBK">
    <mxGraphModel dx="2127" dy="506" grid="1" gridSize="10" guides="1" tooltips="1" connect="1" arrows="1" fold="1" page="1" pageScale="1" pageWidth="850" pageHeight="1100" math="0" shadow="0">
      <root>
        <mxCell id="0" />
        <mxCell id="1" parent="0" />
        <mxCell id="p-daeoeIgjxFsrgDgRGL-57" style="edgeStyle=orthogonalEdgeStyle;rounded=0;orthogonalLoop=1;jettySize=auto;html=1;entryX=0.5;entryY=0;entryDx=0;entryDy=0;" edge="1" parent="1" source="p-daeoeIgjxFsrgDgRGL-59" target="p-daeoeIgjxFsrgDgRGL-60">
          <mxGeometry relative="1" as="geometry" />
        </mxCell>
        <mxCell id="p-daeoeIgjxFsrgDgRGL-58" style="edgeStyle=orthogonalEdgeStyle;rounded=0;orthogonalLoop=1;jettySize=auto;html=1;exitX=0.5;exitY=1;exitDx=0;exitDy=0;entryX=0.25;entryY=0;entryDx=0;entryDy=0;" edge="1" parent="1" source="p-daeoeIgjxFsrgDgRGL-59" target="p-daeoeIgjxFsrgDgRGL-73">
          <mxGeometry relative="1" as="geometry" />
        </mxCell>
        <mxCell id="p-daeoeIgjxFsrgDgRGL-59" value="Instrument Manager" style="rounded=0;whiteSpace=wrap;html=1;" vertex="1" parent="1">
          <mxGeometry x="1530" y="2390" width="120" height="60" as="geometry" />
        </mxCell>
        <mxCell id="p-daeoeIgjxFsrgDgRGL-60" value="&lt;ul&gt;&lt;li&gt;initialize all instruments&lt;/li&gt;&lt;li&gt;close all instruments&lt;/li&gt;&lt;/ul&gt;" style="whiteSpace=wrap;html=1;aspect=fixed;align=left;" vertex="1" parent="1">
          <mxGeometry x="1170" y="2440" width="140" height="140" as="geometry" />
        </mxCell>
        <mxCell id="p-daeoeIgjxFsrgDgRGL-61" style="edgeStyle=orthogonalEdgeStyle;rounded=0;orthogonalLoop=1;jettySize=auto;html=1;entryX=1;entryY=0.75;entryDx=0;entryDy=0;" edge="1" parent="1" source="p-daeoeIgjxFsrgDgRGL-64" target="p-daeoeIgjxFsrgDgRGL-63">
          <mxGeometry relative="1" as="geometry" />
        </mxCell>
        <mxCell id="p-daeoeIgjxFsrgDgRGL-62" style="edgeStyle=orthogonalEdgeStyle;rounded=0;orthogonalLoop=1;jettySize=auto;html=1;exitX=0.5;exitY=1;exitDx=0;exitDy=0;entryX=0.75;entryY=0;entryDx=0;entryDy=0;" edge="1" parent="1" source="p-daeoeIgjxFsrgDgRGL-63" target="p-daeoeIgjxFsrgDgRGL-73">
          <mxGeometry relative="1" as="geometry" />
        </mxCell>
        <mxCell id="p-daeoeIgjxFsrgDgRGL-63" value="DUT manager" style="whiteSpace=wrap;html=1;" vertex="1" parent="1">
          <mxGeometry x="1800" y="2390" width="120" height="60" as="geometry" />
        </mxCell>
        <mxCell id="p-daeoeIgjxFsrgDgRGL-64" value="&lt;ul&gt;&lt;li&gt;Init DUT coms - &amp;gt; API&lt;/li&gt;&lt;li&gt;close DUT coms&lt;/li&gt;&lt;/ul&gt;" style="whiteSpace=wrap;html=1;aspect=fixed;align=left;" vertex="1" parent="1">
          <mxGeometry x="2110" y="2490" width="200" height="200" as="geometry" />
        </mxCell>
        <mxCell id="p-daeoeIgjxFsrgDgRGL-65" style="edgeStyle=orthogonalEdgeStyle;rounded=0;orthogonalLoop=1;jettySize=auto;html=1;entryX=1;entryY=0.5;entryDx=0;entryDy=0;" edge="1" parent="1" source="p-daeoeIgjxFsrgDgRGL-66" target="p-daeoeIgjxFsrgDgRGL-64">
          <mxGeometry relative="1" as="geometry" />
        </mxCell>
        <mxCell id="p-daeoeIgjxFsrgDgRGL-66" value="DUT COMs APIs&lt;div&gt;(DCM0&lt;/div&gt;" style="shape=parallelogram;perimeter=parallelogramPerimeter;whiteSpace=wrap;html=1;fixedSize=1;" vertex="1" parent="1">
          <mxGeometry x="2425" y="2480" width="300" height="220" as="geometry" />
        </mxCell>
        <mxCell id="p-daeoeIgjxFsrgDgRGL-67" value="&lt;font style=&quot;font-size: 16px;&quot;&gt;PINMAP CONFIG&lt;/font&gt;" style="whiteSpace=wrap;html=1;aspect=fixed;align=center;verticalAlign=top;" vertex="1" parent="1">
          <mxGeometry x="1556.8899999999999" y="1900" width="416.22" height="440" as="geometry" />
        </mxCell>
        <mxCell id="p-daeoeIgjxFsrgDgRGL-68" style="edgeStyle=orthogonalEdgeStyle;rounded=0;orthogonalLoop=1;jettySize=auto;html=1;exitX=0;exitY=0.5;exitDx=0;exitDy=0;entryX=0.5;entryY=0;entryDx=0;entryDy=0;" edge="1" parent="1" source="p-daeoeIgjxFsrgDgRGL-69" target="p-daeoeIgjxFsrgDgRGL-59">
          <mxGeometry relative="1" as="geometry" />
        </mxCell>
        <mxCell id="p-daeoeIgjxFsrgDgRGL-69" value="&lt;ul&gt;&lt;li&gt;VDD - channel 1 - K2500 (SMU)&lt;/li&gt;&lt;li&gt;VCC - Chl 2 - K2500 (SMU)&lt;/li&gt;&lt;li&gt;VIN - Chl 1 - PXI4110 (SMU)&lt;/li&gt;&lt;li&gt;VOUT - chl - K2000 (DMM)&lt;/li&gt;&lt;li&gt;ETC&lt;/li&gt;&lt;/ul&gt;" style="rounded=0;whiteSpace=wrap;html=1;align=left;" vertex="1" parent="1">
          <mxGeometry x="1650" y="1950" width="230" height="180" as="geometry" />
        </mxCell>
        <mxCell id="p-daeoeIgjxFsrgDgRGL-70" style="edgeStyle=orthogonalEdgeStyle;rounded=0;orthogonalLoop=1;jettySize=auto;html=1;exitX=1;exitY=0.5;exitDx=0;exitDy=0;entryX=1;entryY=0.5;entryDx=0;entryDy=0;" edge="1" parent="1" source="p-daeoeIgjxFsrgDgRGL-71" target="p-daeoeIgjxFsrgDgRGL-63">
          <mxGeometry relative="1" as="geometry" />
        </mxCell>
        <mxCell id="p-daeoeIgjxFsrgDgRGL-71" value="&lt;ul&gt;&lt;li&gt;CLK - chl1&lt;/li&gt;&lt;li&gt;CS - chl2&lt;/li&gt;&lt;li&gt;MOSI - chl3&lt;/li&gt;&lt;li&gt;MISO - chl4&lt;/li&gt;&lt;/ul&gt;All these can be connected through any USB TI" style="rounded=0;whiteSpace=wrap;html=1;align=left;" vertex="1" parent="1">
          <mxGeometry x="1650" y="2160" width="220" height="130" as="geometry" />
        </mxCell>
        <mxCell id="p-daeoeIgjxFsrgDgRGL-72" value="&lt;span style=&quot;white-space: pre;&quot;&gt;&#x9;&lt;/span&gt;&lt;span style=&quot;white-space: pre;&quot;&gt;&#x9;&lt;/span&gt;&lt;span style=&quot;white-space: pre;&quot;&gt;&#x9;&lt;/span&gt;&lt;span style=&quot;white-space: pre;&quot;&gt;&#x9;&lt;/span&gt;&lt;span style=&quot;white-space: pre;&quot;&gt;&#x9;&lt;/span&gt;&lt;span style=&quot;white-space: pre;&quot;&gt;&#x9;&lt;/span&gt;TEST SCRIPT&lt;div&gt;&lt;br&gt;&lt;/div&gt;&lt;div&gt;&lt;br&gt;&lt;/div&gt;&lt;div&gt;&lt;blockquote style=&quot;margin: 0 0 0 40px; border: none; padding: 0px;&quot;&gt;&lt;div&gt;&lt;u&gt;Forcing conditions or Input args&lt;/u&gt;&lt;/div&gt;&lt;div&gt;&lt;u&gt;&lt;br&gt;&lt;/u&gt;&lt;/div&gt;&lt;div&gt;---&lt;/div&gt;&lt;div&gt;&lt;u&gt;&lt;br&gt;&lt;/u&gt;&lt;/div&gt;&lt;div&gt;&lt;u&gt;Instrument operations&lt;/u&gt;&lt;/div&gt;&lt;div&gt;&amp;lt;whatpin?&amp;gt; , &amp;lt;whatfunction?&amp;gt;, &amp;lt;whatparameters?&amp;gt;&amp;nbsp;&lt;/div&gt;&lt;div&gt;&lt;br&gt;&lt;/div&gt;&lt;div&gt;vdd.setVoltage()&lt;/div&gt;&lt;div&gt;vdd.&lt;/div&gt;&lt;div&gt;.&lt;/div&gt;&lt;div&gt;.&lt;/div&gt;&lt;div&gt;&lt;br&gt;&lt;/div&gt;&lt;div&gt;&lt;br&gt;&lt;/div&gt;&lt;div&gt;---&lt;/div&gt;&lt;div&gt;&lt;u&gt;Reg operations if any&lt;/u&gt;&lt;/div&gt;&lt;div&gt;&lt;br&gt;&lt;/div&gt;&lt;div&gt;DUT.readRegister()&lt;/div&gt;&lt;div&gt;DUT.writeRegister()&lt;/div&gt;&lt;div&gt;&lt;br&gt;&lt;/div&gt;&lt;div&gt;---&lt;/div&gt;&lt;div&gt;&lt;u&gt;Calculations if any&lt;/u&gt;&lt;/div&gt;&lt;div&gt;&lt;br&gt;&lt;/div&gt;&lt;div&gt;---&lt;/div&gt;&lt;div&gt;&lt;u&gt;Log&lt;/u&gt;&lt;/div&gt;&lt;div&gt;&lt;u&gt;&lt;br&gt;&lt;/u&gt;&lt;/div&gt;&lt;div&gt;- csv&lt;/div&gt;&lt;div&gt;----&lt;/div&gt;&lt;div&gt;&lt;u&gt;Export output parameters&lt;/u&gt;&lt;/div&gt;&lt;/blockquote&gt;&lt;/div&gt;" style="whiteSpace=wrap;html=1;aspect=fixed;align=left;verticalAlign=top;" vertex="1" parent="1">
          <mxGeometry x="2176" y="1896" width="480" height="480" as="geometry" />
        </mxCell>
        <mxCell id="p-daeoeIgjxFsrgDgRGL-73" value="&lt;font style=&quot;font-size: 15px;&quot;&gt;Sequencer&lt;/font&gt;&lt;div&gt;&lt;font style=&quot;font-size: 15px;&quot;&gt;&lt;br&gt;&lt;/font&gt;&lt;/div&gt;&lt;div&gt;&lt;font style=&quot;font-size: 15px;&quot;&gt;1. Generate test configs (sequence steps and input combinations)&lt;/font&gt;&lt;/div&gt;&lt;div&gt;&lt;font style=&quot;font-size: 15px;&quot;&gt;2. Execute the sequence (applying the values and running the scripts)&lt;/font&gt;&lt;/div&gt;" style="rounded=1;whiteSpace=wrap;html=1;fillColor=#ffe6cc;strokeColor=#d79b00;" vertex="1" parent="1">
          <mxGeometry x="1590" y="2610" width="280" height="140" as="geometry" />
        </mxCell>
        <mxCell id="p-daeoeIgjxFsrgDgRGL-74" value="Test Methodology&amp;nbsp;&lt;span style=&quot;background-color: transparent; color: light-dark(rgb(0, 0, 0), rgb(255, 255, 255));&quot;&gt;or&amp;nbsp;&lt;/span&gt;&lt;span style=&quot;background-color: transparent; color: light-dark(rgb(0, 0, 0), rgb(255, 255, 255));&quot;&gt;Test Procedure (JSON)&lt;/span&gt;&lt;div&gt;&lt;br&gt;&lt;/div&gt;&lt;div&gt;&lt;div style=&quot;text-align: left;&quot;&gt;&lt;span style=&quot;background-color: transparent; color: light-dark(rgb(0, 0, 0), rgb(255, 255, 255));&quot;&gt;&amp;nbsp;Meta: DUT Information or diagram (Datasheet)&lt;/span&gt;&lt;/div&gt;&lt;div style=&quot;text-align: left;&quot;&gt;&lt;br&gt;&lt;/div&gt;&lt;div style=&quot;text-align: left;&quot;&gt;1. Test Name&lt;/div&gt;&lt;div style=&quot;text-align: left;&quot;&gt;- Parameters (Input conditions and Output parameters)&lt;/div&gt;&lt;div style=&quot;text-align: left;&quot;&gt;- Stey by step procedure&lt;/div&gt;&lt;div style=&quot;text-align: left;&quot;&gt;&lt;span style=&quot;white-space: pre;&quot;&gt;&#x9;&lt;/span&gt;- sweep 0.1 to 5v through Vin or input pins&lt;br&gt;&lt;/div&gt;&lt;div style=&quot;text-align: left;&quot;&gt;&lt;span style=&quot;white-space: pre;&quot;&gt;&#x9;&lt;/span&gt;- measure output pins (Vout)&lt;br&gt;&lt;/div&gt;&lt;div style=&quot;text-align: left;&quot;&gt;&lt;span style=&quot;white-space: pre;&quot;&gt;&#x9;&lt;/span&gt;- calculate SD for the values measured and log&lt;br&gt;&lt;/div&gt;&lt;div style=&quot;text-align: left;&quot;&gt;&lt;span style=&quot;white-space: pre;&quot;&gt;&#x9;&lt;/span&gt;&lt;br&gt;&lt;/div&gt;&lt;div&gt;&lt;div&gt;&lt;br&gt;&lt;/div&gt;&lt;div&gt;&lt;br&gt;&lt;/div&gt;&lt;/div&gt;&lt;/div&gt;" style="rounded=1;whiteSpace=wrap;html=1;" vertex="1" parent="1">
          <mxGeometry x="2220" y="1630" width="380" height="200" as="geometry" />
        </mxCell>
        <mxCell id="p-daeoeIgjxFsrgDgRGL-75" style="edgeStyle=orthogonalEdgeStyle;rounded=0;orthogonalLoop=1;jettySize=auto;html=1;exitX=0.5;exitY=1;exitDx=0;exitDy=0;" edge="1" parent="1" source="p-daeoeIgjxFsrgDgRGL-76" target="p-daeoeIgjxFsrgDgRGL-74">
          <mxGeometry relative="1" as="geometry" />
        </mxCell>
        <mxCell id="p-daeoeIgjxFsrgDgRGL-76" value="Test Procedure Document" style="rounded=1;whiteSpace=wrap;html=1;" vertex="1" parent="1">
          <mxGeometry x="2230" y="1450" width="120" height="60" as="geometry" />
        </mxCell>
        <mxCell id="p-daeoeIgjxFsrgDgRGL-77" value="AI" style="text;html=1;align=center;verticalAlign=middle;resizable=0;points=[];autosize=1;strokeColor=none;fillColor=none;" vertex="1" parent="1">
          <mxGeometry x="2395" y="1530" width="30" height="30" as="geometry" />
        </mxCell>
        <mxCell id="p-daeoeIgjxFsrgDgRGL-78" style="edgeStyle=orthogonalEdgeStyle;rounded=0;orthogonalLoop=1;jettySize=auto;html=1;exitX=0.5;exitY=1;exitDx=0;exitDy=0;entryX=0.488;entryY=-0.003;entryDx=0;entryDy=0;entryPerimeter=0;" edge="1" parent="1" source="p-daeoeIgjxFsrgDgRGL-74" target="p-daeoeIgjxFsrgDgRGL-72">
          <mxGeometry relative="1" as="geometry" />
        </mxCell>
        <mxCell id="p-daeoeIgjxFsrgDgRGL-79" style="edgeStyle=orthogonalEdgeStyle;rounded=0;orthogonalLoop=1;jettySize=auto;html=1;exitX=0.5;exitY=1;exitDx=0;exitDy=0;" edge="1" parent="1" source="p-daeoeIgjxFsrgDgRGL-80">
          <mxGeometry relative="1" as="geometry">
            <mxPoint x="2410" y="1630" as="targetPoint" />
            <Array as="points">
              <mxPoint x="2540" y="1570" />
              <mxPoint x="2411" y="1570" />
              <mxPoint x="2411" y="1620" />
              <mxPoint x="2410" y="1620" />
            </Array>
          </mxGeometry>
        </mxCell>
        <mxCell id="p-daeoeIgjxFsrgDgRGL-80" value="Standard online material" style="rounded=1;whiteSpace=wrap;html=1;" vertex="1" parent="1">
          <mxGeometry x="2480" y="1450" width="120" height="60" as="geometry" />
        </mxCell>
        <mxCell id="p-daeoeIgjxFsrgDgRGL-81" value="1. Iterates over multiple input conditions which may use same execution plan (Sweeping)&lt;div&gt;2. Iterate over different environmental conditions and pack multiple tests under the same hood&lt;/div&gt;" style="whiteSpace=wrap;html=1;aspect=fixed;" vertex="1" parent="1">
          <mxGeometry x="1600" y="2780" width="260" height="260" as="geometry" />
        </mxCell>
        <mxCell id="p-daeoeIgjxFsrgDgRGL-82" value="&lt;div&gt;&lt;br&gt;&lt;/div&gt;&lt;div&gt;&lt;br&gt;&lt;/div&gt;Loop0 - Environment Conditions (temp)&lt;div&gt;Loop1 - Input Conditions sweeping&lt;div&gt;- Test Execution (Test1)&lt;/div&gt;&lt;div&gt;Loop2 - Input conditions sweeping&lt;/div&gt;&lt;div&gt;- Test Execution (Test2)&lt;/div&gt;&lt;/div&gt;" style="text;html=1;align=center;verticalAlign=middle;resizable=0;points=[];autosize=1;strokeColor=none;fillColor=none;" vertex="1" parent="1">
          <mxGeometry x="1880" y="2780" width="230" height="110" as="geometry" />
        </mxCell>
        <mxCell id="p-daeoeIgjxFsrgDgRGL-83" style="edgeStyle=orthogonalEdgeStyle;rounded=0;orthogonalLoop=1;jettySize=auto;html=1;exitX=1;exitY=0.5;exitDx=0;exitDy=0;entryX=0.001;entryY=0.301;entryDx=0;entryDy=0;entryPerimeter=0;" edge="1" parent="1" source="p-daeoeIgjxFsrgDgRGL-69" target="p-daeoeIgjxFsrgDgRGL-72">
          <mxGeometry relative="1" as="geometry" />
        </mxCell>
        <mxCell id="p-daeoeIgjxFsrgDgRGL-84" value="AI" style="text;html=1;align=center;verticalAlign=middle;resizable=0;points=[];autosize=1;strokeColor=none;fillColor=none;" vertex="1" parent="1">
          <mxGeometry x="2415" y="1838" width="30" height="30" as="geometry" />
        </mxCell>
      </root>
    </mxGraphModel>
  </diagram>
</mxfile>
